<mxfile host="app.diagrams.net" modified="2023-02-07T11:12:35.867Z" agent="5.0 (Macintosh; Intel Mac OS X 10_15_6) AppleWebKit/605.1.15 (KHTML, like Gecko) Version/15.6.1 Safari/605.1.15" etag="PCoWSA_xCy0Y18wd2GTB" version="20.8.17" type="github">
  <diagram name="หน้า-1" id="ebHNaiMcBh5dJOH4P806">
    <mxGraphModel dx="773" dy="1350" grid="0" gridSize="10" guides="1" tooltips="1" connect="1" arrows="1" fold="1" page="1" pageScale="1" pageWidth="827" pageHeight="1169" math="0" shadow="0">
      <root>
        <mxCell id="0" />
        <mxCell id="1" parent="0" />
        <mxCell id="Uu1iOH5wYJOavaaDyeEG-2" value="" style="rounded=0;whiteSpace=wrap;html=1;" vertex="1" parent="1">
          <mxGeometry x="385" y="389" width="805" height="2161" as="geometry" />
        </mxCell>
        <mxCell id="Uu1iOH5wYJOavaaDyeEG-6" value="Science Observer" style="shape=umlActor;verticalLabelPosition=bottom;verticalAlign=top;html=1;outlineConnect=0;" vertex="1" parent="1">
          <mxGeometry x="237" y="984" width="39" height="76" as="geometry" />
        </mxCell>
        <mxCell id="Uu1iOH5wYJOavaaDyeEG-7" value="Astronomer" style="shape=umlActor;verticalLabelPosition=bottom;verticalAlign=top;html=1;outlineConnect=0;" vertex="1" parent="1">
          <mxGeometry x="237" y="851" width="39" height="76" as="geometry" />
        </mxCell>
        <mxCell id="Uu1iOH5wYJOavaaDyeEG-11" value="Administrator" style="shape=umlActor;verticalLabelPosition=bottom;verticalAlign=top;html=1;outlineConnect=0;" vertex="1" parent="1">
          <mxGeometry x="237" y="1119" width="39" height="76" as="geometry" />
        </mxCell>
        <mxCell id="Uu1iOH5wYJOavaaDyeEG-12" value="Developers" style="shape=umlActor;verticalLabelPosition=bottom;verticalAlign=top;html=1;outlineConnect=0;" vertex="1" parent="1">
          <mxGeometry x="237" y="1241" width="39" height="76" as="geometry" />
        </mxCell>
        <mxCell id="Uu1iOH5wYJOavaaDyeEG-13" value="Supporter" style="shape=umlActor;verticalLabelPosition=bottom;verticalAlign=top;html=1;outlineConnect=0;" vertex="1" parent="1">
          <mxGeometry x="237" y="1367" width="39" height="76" as="geometry" />
        </mxCell>
        <mxCell id="Uu1iOH5wYJOavaaDyeEG-14" value="Visitor" style="shape=umlActor;verticalLabelPosition=bottom;verticalAlign=top;html=1;outlineConnect=0;" vertex="1" parent="1">
          <mxGeometry x="237" y="1500" width="39" height="76" as="geometry" />
        </mxCell>
        <mxCell id="Uu1iOH5wYJOavaaDyeEG-15" value="Operation staff" style="shape=umlActor;verticalLabelPosition=bottom;verticalAlign=top;html=1;outlineConnect=0;" vertex="1" parent="1">
          <mxGeometry x="1386" y="568" width="39" height="76" as="geometry" />
        </mxCell>
        <mxCell id="Uu1iOH5wYJOavaaDyeEG-16" value="Telescope operator" style="shape=umlActor;verticalLabelPosition=bottom;verticalAlign=top;html=1;outlineConnect=0;" vertex="1" parent="1">
          <mxGeometry x="1283" y="705" width="39" height="76" as="geometry" />
        </mxCell>
        <mxCell id="Uu1iOH5wYJOavaaDyeEG-17" value="Supervisor" style="shape=umlActor;verticalLabelPosition=bottom;verticalAlign=top;html=1;outlineConnect=0;" vertex="1" parent="1">
          <mxGeometry x="1390" y="705" width="39" height="76" as="geometry" />
        </mxCell>
        <mxCell id="Uu1iOH5wYJOavaaDyeEG-18" value="Instrument staff" style="shape=umlActor;verticalLabelPosition=bottom;verticalAlign=top;html=1;outlineConnect=0;" vertex="1" parent="1">
          <mxGeometry x="1483" y="705" width="39" height="76" as="geometry" />
        </mxCell>
        <mxCell id="Uu1iOH5wYJOavaaDyeEG-23" value="&lt;font style=&quot;font-size: 50px;&quot;&gt;Gemini system&lt;/font&gt;" style="text;html=1;strokeColor=none;fillColor=none;align=center;verticalAlign=middle;whiteSpace=wrap;rounded=0;" vertex="1" parent="1">
          <mxGeometry x="633" y="281" width="390" height="64" as="geometry" />
        </mxCell>
        <mxCell id="Uu1iOH5wYJOavaaDyeEG-22" value="View the collection of &amp;nbsp;science data" style="ellipse;whiteSpace=wrap;html=1;" vertex="1" parent="1">
          <mxGeometry x="535" y="492" width="157" height="94" as="geometry" />
        </mxCell>
        <mxCell id="Uu1iOH5wYJOavaaDyeEG-25" value="monitor and affect the performance of an ongoing observatio" style="ellipse;whiteSpace=wrap;html=1;" vertex="1" parent="1">
          <mxGeometry x="535" y="622" width="157" height="94" as="geometry" />
        </mxCell>
        <mxCell id="Uu1iOH5wYJOavaaDyeEG-26" value="test&amp;nbsp; to affect the performance of an ongoing observation" style="ellipse;whiteSpace=wrap;html=1;" vertex="1" parent="1">
          <mxGeometry x="529" y="781" width="157" height="94" as="geometry" />
        </mxCell>
        <mxCell id="Uu1iOH5wYJOavaaDyeEG-27" value="control the telescope and instruments" style="ellipse;whiteSpace=wrap;html=1;" vertex="1" parent="1">
          <mxGeometry x="523" y="911" width="157" height="94" as="geometry" />
        </mxCell>
        <mxCell id="Uu1iOH5wYJOavaaDyeEG-28" value="control the telescope and instruments" style="ellipse;whiteSpace=wrap;html=1;" vertex="1" parent="1">
          <mxGeometry x="523" y="1068" width="157" height="94" as="geometry" />
        </mxCell>
        <mxCell id="Uu1iOH5wYJOavaaDyeEG-29" value="use telescope simulator" style="ellipse;whiteSpace=wrap;html=1;" vertex="1" parent="1">
          <mxGeometry x="526" y="1216" width="157" height="94" as="geometry" />
        </mxCell>
        <mxCell id="Uu1iOH5wYJOavaaDyeEG-30" value="access status and scheduling information" style="ellipse;whiteSpace=wrap;html=1;" vertex="1" parent="1">
          <mxGeometry x="526" y="1364" width="157" height="94" as="geometry" />
        </mxCell>
        <mxCell id="Uu1iOH5wYJOavaaDyeEG-31" value="enable direct interactive operation" style="ellipse;whiteSpace=wrap;html=1;" vertex="1" parent="1">
          <mxGeometry x="535" y="1659.5" width="157" height="94" as="geometry" />
        </mxCell>
        <mxCell id="Uu1iOH5wYJOavaaDyeEG-32" value="enquire about the status of the telescope or any subsystem." style="ellipse;whiteSpace=wrap;html=1;" vertex="1" parent="1">
          <mxGeometry x="529" y="1512" width="157" height="94" as="geometry" />
        </mxCell>
        <mxCell id="Uu1iOH5wYJOavaaDyeEG-33" value="control the Gemini 8m Telescopes indirectly via a scheduler program or directly via commands." style="ellipse;whiteSpace=wrap;html=1;" vertex="1" parent="1">
          <mxGeometry x="532" y="1783" width="157" height="94" as="geometry" />
        </mxCell>
        <mxCell id="Uu1iOH5wYJOavaaDyeEG-34" value="supervise telescope operation" style="ellipse;whiteSpace=wrap;html=1;" vertex="1" parent="1">
          <mxGeometry x="532" y="1897" width="157" height="94" as="geometry" />
        </mxCell>
        <mxCell id="Uu1iOH5wYJOavaaDyeEG-35" value="advise observing astronomers on what they have to do to use telescope and instruments" style="ellipse;whiteSpace=wrap;html=1;" vertex="1" parent="1">
          <mxGeometry x="532" y="2011" width="157" height="94" as="geometry" />
        </mxCell>
      </root>
    </mxGraphModel>
  </diagram>
</mxfile>
